<svg width="115" height="115" viewBox="0 0 115 115" fill="none" xmlns="http://www.w3.org/2000/svg">
<path d="M57.5 71.875C65.4391 71.875 71.875 65.4391 71.875 57.5C71.875 49.5609 65.4391 43.125 57.5 43.125C49.5609 43.125 43.125 49.5609 43.125 57.5C43.125 65.4391 49.5609 71.875 57.5 71.875Z" fill="white"/>
<path d="M62.2916 19.4972V9.58325H52.7083V19.4972C44.2757 20.5722 36.4389 24.417 30.4279 30.4279C24.417 36.4389 20.5722 44.2757 19.4972 52.7083H9.58325V62.2916H19.4972C20.5714 70.7244 24.4159 78.5617 30.427 84.5728C36.4382 90.5839 44.2754 94.4284 52.7083 95.5026V105.417H62.2916V95.5026C70.7244 94.4284 78.5617 90.5839 84.5728 84.5728C90.5839 78.5617 94.4284 70.7244 95.5026 62.2916H105.417V52.7083H95.5026C94.4276 44.2757 90.5829 36.4389 84.5719 30.4279C78.5609 24.417 70.7241 20.5722 62.2916 19.4972ZM57.4999 86.2499C41.6443 86.2499 28.7499 73.3555 28.7499 57.4999C28.7499 41.6443 41.6443 28.7499 57.4999 28.7499C73.3555 28.7499 86.2499 41.6443 86.2499 57.4999C86.2499 73.3555 73.3555 86.2499 57.4999 86.2499Z" fill="white"/>
</svg>
