<svg width="25" height="25" viewBox="0 0 25 25" fill="none" xmlns="http://www.w3.org/2000/svg">
<path d="M4.19966 0C1.87323 0 0 2.03612 0 4.56484V20.4351C0 22.9639 1.87323 25 4.19966 25H12.1131V15.2265H9.73549V11.7078H12.1131V8.70156C12.1131 6.33969 13.5179 4.17109 16.7541 4.17109C18.0643 4.17109 19.0332 4.30782 19.0332 4.30782L18.957 7.59376C18.957 7.59376 17.9689 7.58361 16.8906 7.58361C15.7236 7.58361 15.5365 8.16806 15.5365 9.13831V11.7078H19.0497L18.8967 15.2266H15.5365V25H18.8003C21.1268 25 23 22.9639 23 20.4352V4.56487C23 2.03615 21.1268 2.5e-05 18.8003 2.5e-05H4.19964L4.19966 0Z" fill="white"/>
</svg>
