<svg width="115" height="115" viewBox="0 0 115 115" fill="none" xmlns="http://www.w3.org/2000/svg">
<path d="M36.6562 111.406H15.4531V88.2266L40.25 93.9766C34.3203 100.266 36.6562 111.406 36.6562 111.406Z" fill="#411723"/>
<path d="M34.6797 111.406H10.9609C10.9609 111.406 11.3203 99.9062 7.36719 90.0234L37.0156 94.3359C33.6016 103.141 34.6797 111.406 34.6797 111.406Z" fill="white"/>
<path d="M32.3438 79.7812H41.3281V39.8906C41.3281 37.1953 39.3516 35.0391 36.8359 35.0391C34.3203 35.0391 32.3438 37.1953 32.3438 40.0703V79.7812Z" fill="white"/>
<path d="M21.7422 79.7812H32.3438V36.4766C32.3438 33.2422 30.0078 30.5469 26.9531 30.5469C24.0781 30.5469 21.5625 33.2422 21.5625 36.4766V79.7812H21.7422Z" fill="white"/>
<path d="M12.5781 79.7813H21.9219V38.9922C21.9219 36.1172 19.7656 33.7812 17.25 33.7812C14.7344 33.7812 12.5781 36.1172 12.5781 38.9922V79.7813Z" fill="white"/>
<path d="M8.26562 39.8906C5.92969 39.8906 4.13281 42.0469 4.13281 44.7422V79.7813H12.5781V44.7422C12.5781 42.0469 10.6016 39.8906 8.26562 39.8906Z" fill="white"/>
<path d="M36.8359 34.8594H35.9375C38.0938 35.2187 39.7109 37.375 39.7109 39.7109V79.7812H41.3281V39.8906C41.3281 37.1953 39.3516 34.8594 36.8359 34.8594Z" fill="#411723"/>
<path d="M27.1328 30.5469C26.7734 30.5469 26.5937 30.5469 26.4141 30.7266C28.9297 31.0859 30.9063 33.6016 30.9063 36.4766V65.4062L32.5234 67.2031V36.4766C32.3438 33.2422 30.0078 30.5469 27.1328 30.5469Z" fill="#411723"/>
<path d="M17.25 33.7812H16.5312C18.6875 34.1406 20.3047 36.2969 20.3047 38.8125V65.2266L21.9219 67.0234V38.9922C21.7422 36.1172 19.7656 33.7812 17.25 33.7812Z" fill="#411723"/>
<path d="M8.26563 39.8906C7.90625 39.8906 7.72656 39.8906 7.54688 40.0703C9.52344 40.4297 10.9609 42.4062 10.9609 44.7422V65.4063L12.5781 67.2031V44.7422C12.5781 42.0469 10.6016 39.8906 8.26563 39.8906Z" fill="#401722"/>
<path d="M56.4219 61.4531C53.7266 58.3985 48.336 59.836 44.5625 67.7422C41.8672 73.1328 41.1485 72.0547 39.711 72.4141V67.5625C39.711 67.5625 3.95317 65.2266 3.95317 70.6172C3.95317 70.6172 2.33599 83.9141 5.75005 92.1797C10.961 104.578 37.5547 107.813 45.8204 86.7891C47.4376 82.6563 49.7735 78.1641 51.5704 73.6719C53.9063 68.2813 59.4766 65.0469 56.4219 61.4531Z" fill="white"/>
<path d="M54.625 60.1953C60.375 64.5078 49.7734 72.7734 44.7422 85.5312C37.5547 103.859 16.5313 103.859 7.72656 95.4141C15.8125 104.937 38.2734 106.734 45.8203 86.7891C50.8516 73.8516 63.0703 63.9687 54.625 60.1953Z" fill="#411723"/>
<path d="M41.3282 72.2344C34.3204 69.7188 19.586 74.5704 21.5626 88.586C21.5626 75.4688 33.2423 72.4141 39.711 72.4141C40.6095 72.4141 41.3282 72.2344 41.3282 72.2344Z" fill="#411723"/>
<path d="M78.3437 111.406H99.5469V88.2266L74.75 93.9766C80.6797 100.266 78.3437 111.406 78.3437 111.406Z" fill="#421824"/>
<path d="M80.3203 111.406H104.039C104.039 111.406 103.68 99.9062 107.633 90.0234L77.9844 94.3359C81.3984 103.141 80.3203 111.406 80.3203 111.406Z" fill="white"/>
<path d="M82.6562 79.7812H73.6719V39.8906C73.6719 37.1953 75.6484 35.0391 78.1641 35.0391C80.6797 35.0391 82.6562 37.1953 82.6562 40.0703V79.7812Z" fill="white"/>
<path d="M93.2578 79.7812H82.6562V36.4766C82.6562 33.2422 84.9922 30.5469 88.0469 30.5469C90.9219 30.5469 93.4375 33.2422 93.4375 36.4766V79.7812H93.2578Z" fill="white"/>
<path d="M102.422 79.7813H93.0781V38.9922C93.0781 36.1172 95.2344 33.7812 97.75 33.7812C100.266 33.7812 102.422 36.1172 102.422 38.9922V79.7813Z" fill="white"/>
<path d="M106.734 39.8906C109.07 39.8906 110.867 42.0469 110.867 44.7422V79.7813H102.422V44.7422C102.422 42.0469 104.398 39.8906 106.734 39.8906Z" fill="white"/>
<path d="M78.1641 34.8594H79.0625C76.9062 35.2187 75.2891 37.375 75.2891 39.7109V79.7812H73.6719V39.8906C73.6719 37.1953 75.6484 34.8594 78.1641 34.8594Z" fill="#411723"/>
<path d="M87.8672 30.5469C88.2266 30.5469 88.4062 30.5469 88.5859 30.7266C86.0703 31.0859 84.0937 33.6016 84.0937 36.4766V65.4062L82.4766 67.2031V36.4766C82.6562 33.2422 84.9922 30.5469 87.8672 30.5469Z" fill="#411723"/>
<path d="M97.75 33.7812H98.4688C96.3125 34.1406 94.6953 36.2969 94.6953 38.8125V65.2266L93.0781 67.0234V38.9922C93.2578 36.1172 95.2344 33.7812 97.75 33.7812Z" fill="#411723"/>
<path d="M106.734 39.8906C107.094 39.8906 107.273 39.8906 107.453 40.0703C105.477 40.4297 104.039 42.4062 104.039 44.7422V65.4063L102.422 67.2031V44.7422C102.422 42.0469 104.398 39.8906 106.734 39.8906Z" fill="#411723"/>
<path d="M58.578 61.4531C61.2733 58.3985 66.664 59.836 70.4374 67.7422C73.1327 73.1328 73.8515 72.0547 75.289 72.4141V67.5625C75.289 67.5625 111.047 65.2266 111.047 70.6172C111.047 70.6172 112.664 83.9141 109.25 92.1797C104.039 104.578 77.4452 107.813 69.1796 86.7891C67.5624 82.6563 65.2264 78.1641 63.4296 73.6719C61.0936 68.2813 55.5233 65.0469 58.578 61.4531Z" fill="white"/>
<path d="M60.3751 60.1953C54.6251 64.5078 65.2266 72.7734 70.2579 85.5312C77.4454 103.859 98.4688 103.859 107.274 95.4141C99.1876 104.937 76.7266 106.734 69.1798 86.7891C64.1485 73.8516 51.9298 63.9687 60.3751 60.1953Z" fill="#401722"/>
<path d="M73.6719 72.2344C80.6797 69.7188 95.4141 74.5704 93.4375 88.586C93.4375 75.4688 81.7578 72.4141 75.2891 72.4141C74.3906 72.4141 73.6719 72.2344 73.6719 72.2344Z" fill="#401722"/>
<g clip-path="url(#clip0)">
<path d="M65.8359 31.4609L60.3752 26.0002L65.8359 20.5394C65.9406 20.4335 65.9992 20.2906 65.9992 20.1417C65.9992 19.9929 65.9406 19.85 65.8359 19.7441L63.2563 17.1644C63.2041 17.1121 63.1422 17.0705 63.0739 17.0422C63.0057 17.0139 62.9325 16.9993 62.8586 16.9993C62.7847 16.9993 62.7115 17.0139 62.6433 17.0422C62.5751 17.0705 62.5131 17.1121 62.4609 17.1644L57.0002 22.6252L51.5394 17.1644C51.4339 17.059 51.2909 16.9997 51.1417 16.9997C50.9926 16.9997 50.8495 17.059 50.7441 17.1644L48.1644 19.7441C48.1121 19.7962 48.0705 19.8582 48.0422 19.9264C48.0139 19.9947 47.9993 20.0678 47.9993 20.1417C47.9993 20.2156 48.0139 20.2888 48.0422 20.357C48.0705 20.4253 48.1121 20.4873 48.1644 20.5394L53.6252 26.0002L48.1644 31.4609C48.059 31.5664 47.9997 31.7095 47.9997 31.8586C47.9997 32.0078 48.059 32.1508 48.1644 32.2563L50.7441 34.8359C50.7962 34.8883 50.8582 34.9298 50.9264 34.9582C50.9947 34.9865 51.0678 35.0011 51.1417 35.0011C51.2156 35.0011 51.2888 34.9865 51.357 34.9582C51.4253 34.9298 51.4873 34.8883 51.5394 34.8359L57.0002 29.3752L62.4609 34.8359C62.5664 34.9414 62.7095 35.0006 62.8586 35.0006C63.0078 35.0006 63.1508 34.9414 63.2563 34.8359L65.8359 32.2563C65.8883 32.2041 65.9298 32.1422 65.9582 32.0739C65.9865 32.0057 66.0011 31.9325 66.0011 31.8586C66.0011 31.7847 65.9865 31.7115 65.9582 31.6433C65.9298 31.5751 65.8883 31.5131 65.8359 31.4609Z" fill="white"/>
</g>
<defs>
<clipPath id="clip0">
<rect width="18" height="18" fill="white" transform="translate(48 17)"/>
</clipPath>
</defs>
</svg>
