<svg width="25" height="25" viewBox="0 0 25 25" fill="none" xmlns="http://www.w3.org/2000/svg">
<path d="M12.5 0C9.10192 0 8.67843 0.0164083 7.34857 0.0726653C6.01325 0.138299 5.11001 0.345356 4.31304 0.654769C3.47892 0.969668 2.72352 1.4627 2.09948 2.09948C1.46092 2.72206 0.967618 3.47788 0.654769 4.31304C0.345356 5.11001 0.138299 6.01325 0.0726653 7.34857C0.0125016 8.67921 0 9.10192 0 12.5C0 15.8981 0.0164083 16.3216 0.0726653 17.6514C0.138299 18.9828 0.345356 19.89 0.654769 20.687C0.969669 21.5211 1.4627 22.2765 2.09948 22.9005C2.72206 23.5391 3.47788 24.0324 4.31304 24.3452C5.11001 24.6507 6.01716 24.8617 7.34857 24.9273C8.67921 24.9875 9.10192 25 12.5 25C15.8981 25 16.3216 24.9836 17.6514 24.9273C18.9828 24.8617 19.89 24.65 20.687 24.3452C21.5211 24.0303 22.2765 23.5373 22.9005 22.9005C23.5399 22.2786 24.0333 21.5226 24.3452 20.687C24.6507 19.89 24.8617 18.9828 24.9273 17.6514C24.9875 16.3208 25 15.8981 25 12.5C25 9.10192 24.9836 8.67843 24.9273 7.34857C24.8617 6.01716 24.65 5.10533 24.3452 4.31304C24.0303 3.47892 23.5373 2.72352 22.9005 2.09948C22.2786 1.4601 21.5226 0.966667 20.687 0.654769C19.89 0.345356 18.9828 0.138299 17.6514 0.0726653C16.3208 0.0125016 15.8981 0 12.5 0ZM12.5 2.25028C15.8371 2.25028 16.2356 2.26669 17.5545 2.32295C18.7711 2.37998 19.4337 2.58314 19.8736 2.75503C20.4174 2.95578 20.9096 3.27529 21.3144 3.6903C21.7287 4.09334 22.047 4.58444 22.2457 5.1272C22.4176 5.5671 22.6208 6.22968 22.6778 7.44624C22.7341 8.76516 22.7505 9.16443 22.7505 12.5008C22.7505 15.8371 22.7341 16.2364 22.6731 17.5553C22.6075 18.7719 22.4044 19.4345 22.2332 19.8744C21.9965 20.4612 21.7324 20.8714 21.2964 21.3152C20.8903 21.7276 20.3984 22.0456 19.8556 22.2465C19.4212 22.4184 18.7492 22.6216 17.528 22.6786C16.202 22.7349 15.8114 22.7513 12.4656 22.7513C9.11989 22.7513 8.73 22.7349 7.40249 22.6739C6.18593 22.6083 5.51475 22.4051 5.07485 22.234C4.48103 21.9973 4.07395 21.7332 3.63795 21.2972C3.19806 20.8573 2.91833 20.4385 2.70268 19.8564C2.52766 19.422 2.32763 18.75 2.26278 17.5288C2.21825 16.2184 2.19715 15.8121 2.19715 12.482C2.19715 9.15349 2.21825 8.74641 2.26278 7.41968C2.32763 6.19843 2.52766 5.52803 2.70268 5.09204C2.91833 4.49744 3.19884 4.09114 3.63795 3.65124C4.07317 3.21603 4.48103 2.93474 5.07485 2.7144C5.51475 2.54329 6.16952 2.34014 7.39077 2.27919C8.71671 2.23153 9.10739 2.21434 12.4484 2.21434L12.5 2.25028ZM12.5 6.08435C11.6572 6.08405 10.8226 6.24982 10.0439 6.57221C9.26517 6.89459 8.55762 7.36727 7.96166 7.96322C7.36571 8.55918 6.89303 9.26673 6.57065 10.0454C6.24826 10.8241 6.08248 11.6588 6.08279 12.5016C6.08248 13.3444 6.24826 14.179 6.57065 14.9577C6.89303 15.7364 7.36571 16.4439 7.96166 17.0399C8.55762 17.6359 9.26517 18.1085 10.0439 18.4309C10.8226 18.7533 11.6572 18.9191 12.5 18.9188C13.3428 18.9191 14.1774 18.7533 14.9561 18.4309C15.7348 18.1085 16.4424 17.6359 17.0383 17.0399C17.6343 16.4439 18.107 15.7364 18.4294 14.9577C18.7517 14.179 18.9175 13.3444 18.9172 12.5016C18.9175 11.6588 18.7517 10.8241 18.4294 10.0454C18.107 9.26673 17.6343 8.55918 17.0383 7.96322C16.4424 7.36727 15.7348 6.89459 14.9561 6.57221C14.1774 6.24982 13.3428 6.08405 12.5 6.08435ZM12.5 16.6685C10.1966 16.6685 8.33307 14.805 8.33307 12.5016C8.33307 10.1981 10.1966 8.33463 12.5 8.33463C14.8034 8.33463 16.6669 10.1981 16.6669 12.5016C16.6669 14.805 14.8034 16.6685 12.5 16.6685ZM20.676 5.82807C20.6756 6.2263 20.5171 6.60807 20.2354 6.88951C19.9537 7.17095 19.5717 7.32904 19.1735 7.32904C18.9766 7.32904 18.7816 7.29026 18.5997 7.21491C18.4178 7.13955 18.2525 7.02911 18.1133 6.88987C17.974 6.75064 17.8636 6.58535 17.7882 6.40343C17.7129 6.22152 17.6741 6.02654 17.6741 5.82963C17.6741 5.63273 17.7129 5.43775 17.7882 5.25584C17.8636 5.07392 17.974 4.90863 18.1133 4.76939C18.2525 4.63016 18.4178 4.51972 18.5997 4.44436C18.7816 4.36901 18.9766 4.33023 19.1735 4.33023C19.9994 4.33023 20.676 5.00219 20.676 5.82807Z" fill="white"/>
</svg>
