<svg width="25" height="25" viewBox="0 0 25 25" fill="none" xmlns="http://www.w3.org/2000/svg">
<path d="M4.89907 0C2.20496 0 0 2.20491 0 4.89907V20.1017C0 22.7958 2.20491 25 4.89907 25H20.1017C22.7959 25 25 22.7959 25 20.1017V4.89907C25 2.20496 22.7959 0 20.1017 0H4.89907ZM6.13125 4.1255C7.42302 4.1255 8.21869 4.97352 8.24325 6.08824C8.24325 7.17834 7.42297 8.05019 6.10627 8.05019H6.08203C4.81485 8.05019 3.99582 7.17839 3.99582 6.08824C3.99582 4.97355 4.83966 4.1255 6.13125 4.1255ZM17.2631 9.33553C19.7474 9.33553 21.6098 10.9593 21.6098 14.4487V20.9627H17.8343V14.8854C17.8343 13.3582 17.2879 12.3163 15.9216 12.3163C14.8785 12.3163 14.2568 13.0186 13.9838 13.697C13.8841 13.9397 13.8596 14.2787 13.8596 14.6182V20.9627H10.0841C10.0841 20.9627 10.1337 10.6679 10.0841 9.60195H13.8604V11.2107C14.3621 10.4367 15.2595 9.33553 17.2631 9.33553ZM4.21852 9.60277H7.99399V20.9628H4.21852V9.60277Z" fill="url(#paint0_linear)"/>
<defs>
<linearGradient id="paint0_linear" x1="12.5" y1="0" x2="12.5" y2="25" gradientUnits="userSpaceOnUse">
<stop stop-color="#EE5D51"/>
<stop offset="1" stop-color="#932B89"/>
</linearGradient>
</defs>
</svg>
