<svg width="14" height="14" viewBox="0 0 14 14" fill="none" xmlns="http://www.w3.org/2000/svg">
<path d="M7 0.875C3.61758 0.875 0.875 3.61758 0.875 7C0.875 10.3824 3.61758 13.125 7 13.125C10.3824 13.125 13.125 10.3824 13.125 7C13.125 3.61758 10.3824 0.875 7 0.875ZM8.97012 7.09434L5.98418 9.2668C5.96781 9.27856 5.94851 9.28558 5.92841 9.28709C5.90831 9.2886 5.88818 9.28454 5.87024 9.27536C5.85229 9.26618 5.83723 9.25222 5.8267 9.23503C5.81617 9.21785 5.81058 9.19809 5.81055 9.17793V4.83574C5.81048 4.81554 5.81601 4.79572 5.82652 4.77847C5.83703 4.76122 5.85211 4.74722 5.87009 4.73802C5.88807 4.72882 5.90825 4.72477 5.92838 4.72634C5.94852 4.7279 5.96783 4.73501 5.98418 4.74688L8.97012 6.91797C8.98422 6.92795 8.99573 6.94116 9.00367 6.9565C9.01162 6.97185 9.01576 6.98887 9.01576 7.00615C9.01576 7.02343 9.01162 7.04046 9.00367 7.0558C8.99573 7.07114 8.98422 7.08436 8.97012 7.09434Z" fill="white"/>
</svg>
