<svg width="96" height="83" viewBox="0 0 96 83" fill="none" xmlns="http://www.w3.org/2000/svg">
<path d="M47.9167 61.8466C44.1042 61.8466 40.4479 60.3429 37.752 57.6663C35.0562 54.9898 33.5417 51.3596 33.5417 47.5743C33.5417 42.246 36.4646 37.5837 40.7292 35.1574L87.2563 8.42065L60.7584 53.9968C58.3625 58.6591 53.523 61.8466 47.9167 61.8466ZM47.9167 0C56.5896 0 64.6875 2.37872 71.7313 6.27981L61.6688 12.0363C57.5 10.4188 52.7084 9.51486 47.9167 9.51486C37.7501 9.51486 27.9998 13.5247 20.8109 20.6622C13.622 27.7997 9.58336 37.4803 9.58336 47.5743C9.58336 58.0882 13.8479 67.6031 20.7959 74.4538H20.8438C22.7125 76.3092 22.7125 79.3064 20.8438 81.1618C18.975 83.0172 15.9084 83.0172 14.0396 81.2093C9.58324 76.7975 6.04883 71.5549 3.63947 65.7827C1.2301 60.0105 -0.00673582 53.8226 2.7589e-05 47.5743C2.7589e-05 34.9568 5.04838 22.8561 14.0345 13.9342C23.0206 5.01228 35.2084 0 47.9167 0ZM95.8334 47.5743C95.8334 60.7048 90.4667 72.5984 81.7938 81.2093C79.925 83.0172 76.9063 83.0172 75.0375 81.1618C74.5933 80.7216 74.2409 80.1989 74.0005 79.6233C73.76 79.0478 73.6362 78.4309 73.6362 77.8078C73.6362 77.1847 73.76 76.5678 74.0005 75.9922C74.2409 75.4167 74.5933 74.8939 75.0375 74.4538C78.6011 70.9301 81.4266 66.7407 83.3511 62.1273C85.2755 57.5139 86.2608 52.5677 86.25 47.5743C86.25 42.8169 85.3396 38.0594 83.6625 33.7778L89.4605 23.7872C93.4375 30.9233 95.8334 38.9158 95.8334 47.5743Z" fill="white"/>
</svg>
