<svg width="20" height="21" viewBox="0 0 20 21" fill="none" xmlns="http://www.w3.org/2000/svg">
<path d="M19.0207 7.3947L13.3815 6.43661L10.8606 0.462178C10.7918 0.298601 10.6785 0.166182 10.5386 0.0856924C10.1877 -0.116831 9.76122 0.0519386 9.58576 0.462178L7.0649 6.43661L1.42571 7.3947C1.27024 7.42066 1.12809 7.50635 1.01926 7.63617C0.887692 7.79426 0.815191 8.00694 0.817689 8.22749C0.820188 8.44803 0.897482 8.6584 1.03259 8.81236L5.11261 13.4626L4.14869 20.029C4.12608 20.1818 4.14054 20.3389 4.19043 20.4825C4.24031 20.6261 4.32362 20.7505 4.43091 20.8416C4.5382 20.9327 4.66518 20.9869 4.79745 20.9979C4.92972 21.0089 5.06198 20.9764 5.17924 20.904L10.2232 17.8039L15.2671 20.904C15.4049 20.9897 15.5648 21.0183 15.718 20.9871C16.1045 20.9092 16.3643 20.4808 16.2977 20.029L15.3338 13.4626L19.4138 8.81236C19.5249 8.68513 19.5982 8.51896 19.6204 8.33721C19.6803 7.88283 19.4094 7.46221 19.0207 7.3947Z" fill="url(#paint0_linear)"/>
<defs>
<linearGradient id="paint0_linear" x1="0.817627" y1="8.08794" x2="19.6298" y2="8.04994" gradientUnits="userSpaceOnUse">
<stop stop-color="#EE5D51"/>
<stop offset="1" stop-color="#932B89"/>
</linearGradient>
</defs>
</svg>
